<?xml version="1.0" encoding="UTF-8"?>
<!--Generator: Apple Native CoreSVG 341-->
<!DOCTYPE svg
PUBLIC "-//W3C//DTD SVG 1.1//EN"
       "http://www.w3.org/Graphics/SVG/1.1/DTD/svg11.dtd">
<svg version="1.1" xmlns="http://www.w3.org/2000/svg" xmlns:xlink="http://www.w3.org/1999/xlink" viewBox="0 0 22.1092 18.439">
 <g>
  <rect height="18.439" opacity="0" width="22.1092" x="0" y="0"/>
  <path d="M0 7.05773C0 9.60255 0.862072 11.9774 2.46764 13.6824C2.95053 14.1919 3.58435 14.1609 3.94343 13.7281C4.29009 13.3206 4.18312 12.8058 3.7974 12.3712C2.55402 10.9907 1.85886 9.11076 1.85886 7.05773C1.85886 5.00781 2.54781 3.13101 3.7974 1.75046C4.18623 1.31591 4.2963 0.801028 3.94343 0.393568C3.58125-0.0360787 2.94432-0.0764489 2.46764 0.439291C0.905547 2.11636 0 4.52222 0 7.05773ZM17.8045 13.7281C18.1635 14.1609 18.7974 14.1919 19.2803 13.6824C20.8858 11.9774 21.7479 9.60255 21.7479 7.05773C21.7479 4.52222 20.8423 2.11636 19.2803 0.439291C18.8036-0.0764489 18.1666-0.0360787 17.8045 0.393568C17.4516 0.801028 17.5617 1.31591 17.9505 1.75046C19.2001 3.13101 19.889 5.00781 19.889 7.05773C19.889 9.11076 19.1939 10.9907 17.9505 12.3712C17.5648 12.8058 17.4578 13.3206 17.8045 13.7281Z" fill="black" fill-opacity="0.85"/>
  <path d="M4.24797 7.05773C4.24797 8.51501 4.7083 9.87775 5.53928 10.861C5.97423 11.3754 6.66265 11.3595 7.01908 10.9201C7.35021 10.5157 7.22947 10.0203 6.89833 9.56937C6.39624 8.93056 6.10683 7.9833 6.10683 7.05773C6.10683 6.13216 6.41622 5.20798 6.89833 4.54608C7.2197 4.08534 7.35021 3.59976 7.01908 3.19851C6.66265 2.7591 5.97423 2.73691 5.53928 3.25445C4.7083 4.23771 4.24797 5.60044 4.24797 7.05773ZM14.7288 10.9201C15.0852 11.3595 15.7737 11.3754 16.2086 10.861C17.0396 9.87775 17.4999 8.51501 17.4999 7.05773C17.4999 5.60044 17.0396 4.23771 16.2086 3.25445C15.7737 2.73691 15.0852 2.7591 14.7288 3.19851C14.3977 3.59976 14.5282 4.08534 14.8496 4.54608C15.3317 5.20798 15.6411 6.13216 15.6411 7.05773C15.6411 7.9833 15.3516 8.93056 14.8496 9.56937C14.5184 10.0203 14.3977 10.5157 14.7288 10.9201Z" fill="black" fill-opacity="0.85"/>
  <path d="M8.89277 7.05773C8.89277 7.82296 9.318 8.48433 9.96073 8.81056L9.96073 17.4066C9.96073 18.0165 10.3349 18.439 10.8804 18.439C11.4449 18.439 11.7965 18.0325 11.7965 17.4066L11.7965 8.81056C12.4294 8.48433 12.8613 7.8163 12.8613 7.05773C12.8613 5.95695 11.9812 5.06346 10.8804 5.06346C9.77294 5.06346 8.89277 5.95695 8.89277 7.05773Z" fill="black" fill-opacity="0.85"/>
 </g>
</svg>
