<?xml version="1.0" encoding="UTF-8"?>
<!--Generator: Apple Native CoreSVG 341-->
<!DOCTYPE svg
PUBLIC "-//W3C//DTD SVG 1.1//EN"
       "http://www.w3.org/Graphics/SVG/1.1/DTD/svg11.dtd">
<svg version="1.1" xmlns="http://www.w3.org/2000/svg" xmlns:xlink="http://www.w3.org/1999/xlink" viewBox="0 0 20.9912 24.1725">
 <g>
  <rect height="24.1725" opacity="0" width="20.9912" x="0" y="0"/>
  <path d="M8.21289 0.772779L8.21289 5.63118C8.21289 6.39778 8.87207 6.58821 9.42871 6.17805L12.666 3.76594C13.0811 3.45833 13.0859 2.94075 12.666 2.63313L9.43359 0.216139C8.87207-0.203783 8.21289-0.00847051 8.21289 0.772779ZM10.3125 22.3939C16.0107 22.3939 20.6299 17.7698 20.6299 12.0814C20.6299 9.09797 19.3115 6.27571 17.0605 4.35676C16.4062 3.74153 15.5859 3.81965 15.127 4.35676C14.624 4.95735 14.8047 5.70442 15.3613 6.26594C17.0312 7.70637 18.0615 9.73274 18.0615 12.0814C18.0615 16.3636 14.5947 19.8255 10.3125 19.8255C6.03027 19.8255 2.56836 16.3636 2.56836 12.0814C2.56836 7.79915 6.03027 4.33723 10.3271 4.33723C11.0352 4.33723 11.6113 3.75618 11.6113 3.04817C11.6113 2.34505 11.04 1.77376 10.332 1.76887C4.61426 1.77376 0 6.38801 0 12.0814C0 17.7698 4.61914 22.3939 10.3125 22.3939Z" fill="black" fill-opacity="0.85"/>
 </g>
</svg>
