<?xml version="1.0" standalone="no"?><!DOCTYPE svg PUBLIC "-//W3C//DTD SVG 1.1//EN" "http://www.w3.org/Graphics/SVG/1.1/DTD/svg11.dtd"><svg t="1773475462206" class="icon" viewBox="0 0 1024 1024" version="1.1" xmlns="http://www.w3.org/2000/svg" p-id="86440" xmlns:xlink="http://www.w3.org/1999/xlink" width="200" height="200"><path d="M147.328 0C101.504 0 64 36.864 64 81.92v860.16C64 987.136 101.504 1024 147.328 1024h729.344c45.824 0 83.328-36.864 83.328-81.92V286.72L668.288 0h-520.96z" fill="#BBC6FF" p-id="86441"></path><path d="M750.592 293.568h208L667.392 2.304v208c0 45.824 37.376 83.2 83.2 83.2M512 352c0 17.6-14.4 32-32 32h-256a32.064 32.064 0 0 1-32-32c0-17.6 14.4-32 32-32h256c17.6 0 32 14.4 32 32m256 192c0 17.6-13.888 32-30.848 32H222.848A31.552 31.552 0 0 1 192 544c0-17.6 13.888-32 30.848-32h514.304c16.96 0 30.848 14.4 30.848 32m64 192c0 17.6-15.424 32-34.304 32H226.304C207.36 768 192 753.6 192 736s15.36-32 34.304-32h571.392c18.88 0 34.304 14.4 34.304 32" fill="#8395FF" p-id="86442"></path></svg>