<?xml version="1.0" encoding="UTF-8"?>
<!--Generator: Apple Native CoreSVG 341-->
<!DOCTYPE svg
PUBLIC "-//W3C//DTD SVG 1.1//EN"
       "http://www.w3.org/Graphics/SVG/1.1/DTD/svg11.dtd">
<svg version="1.1" xmlns="http://www.w3.org/2000/svg" xmlns:xlink="http://www.w3.org/1999/xlink" viewBox="0 0 21.4838 20.4197">
 <g>
  <rect height="20.4197" opacity="0" width="21.4838" x="0" y="0"/>
  <path d="M1.33223 6.33291L19.7902 6.33291C20.2093 6.33291 20.4431 6.03613 20.4431 5.72656C20.4431 5.50625 20.3194 5.30684 20.0429 5.1502L11.6697 0.314551C11.3094 0.108106 10.9295 0 10.5594 0C10.1832 0 9.79658 0.111133 9.45274 0.314551L1.07959 5.1502C0.796291 5.30684 0.682423 5.50625 0.682423 5.72656C0.682423 6.03613 0.913185 6.33291 1.33223 6.33291ZM2.06006 8.09102L4.63115 8.09102C4.90772 8.09102 5.07412 7.93135 5.07412 7.65479L5.07412 7.51807C5.07412 7.24453 4.90772 7.07813 4.63115 7.07813L2.06006 7.07813C1.7835 7.07813 1.61406 7.24453 1.61406 7.51807L1.61406 7.65479C1.61406 7.93135 1.7835 8.09102 2.06006 8.09102ZM2.7748 17.6975L3.91944 17.6975L3.91944 7.82969L2.7748 7.82969ZM2.06006 18.449L4.63115 18.449C4.90772 18.449 5.07412 18.2894 5.07412 18.0061L5.07412 17.8693C5.07412 17.5958 4.90772 17.4361 4.63115 17.4361L2.06006 17.4361C1.7835 17.4361 1.61406 17.5958 1.61406 17.8693L1.61406 18.0061C1.61406 18.2894 1.7835 18.449 2.06006 18.449ZM6.87598 8.09102L9.44033 8.09102C9.72364 8.09102 9.88633 7.93135 9.88633 7.65479L9.88633 7.51807C9.88633 7.24453 9.72364 7.07813 9.44033 7.07813L6.87598 7.07813C6.59268 7.07813 6.43301 7.24453 6.43301 7.51807L6.43301 7.65479C6.43301 7.93135 6.59268 8.09102 6.87598 8.09102ZM7.58701 17.6975L8.72862 17.6975L8.72862 7.82969L7.58701 7.82969ZM6.87598 18.449L9.44033 18.449C9.72364 18.449 9.88633 18.2894 9.88633 18.0061L9.88633 17.8693C9.88633 17.5958 9.72364 17.4361 9.44033 17.4361L6.87598 17.4361C6.59268 17.4361 6.43301 17.5958 6.43301 17.8693L6.43301 18.0061C6.43301 18.2894 6.59268 18.449 6.87598 18.449ZM11.6852 8.09102L14.2525 8.09102C14.5358 8.09102 14.7023 7.93135 14.7023 7.65479L14.7023 7.51807C14.7023 7.24453 14.5358 7.07813 14.2525 7.07813L11.6852 7.07813C11.4019 7.07813 11.2422 7.24453 11.2422 7.51807L11.2422 7.65479C11.2422 7.93135 11.4019 8.09102 11.6852 8.09102ZM12.4029 17.6975L13.5445 17.6975L13.5445 7.82969L12.4029 7.82969ZM11.6852 18.449L14.2525 18.449C14.5358 18.449 14.7023 18.2894 14.7023 18.0061L14.7023 17.8693C14.7023 17.5958 14.5358 17.4361 14.2525 17.4361L11.6852 17.4361C11.4019 17.4361 11.2422 17.5958 11.2422 17.8693L11.2422 18.0061C11.2422 18.2894 11.4019 18.449 11.6852 18.449ZM16.4943 8.09102L19.0685 8.09102C19.345 8.09102 19.5114 7.93135 19.5114 7.65479L19.5114 7.51807C19.5114 7.24453 19.345 7.07813 19.0685 7.07813L16.4943 7.07813C16.2178 7.07813 16.0514 7.24453 16.0514 7.51807L16.0514 7.65479C16.0514 7.93135 16.2178 8.09102 16.4943 8.09102ZM17.2189 17.6975L18.3635 17.6975L18.3635 7.82969L17.2189 7.82969ZM16.4943 18.449L19.0685 18.449C19.345 18.449 19.5114 18.2894 19.5114 18.0061L19.5114 17.8693C19.5114 17.5958 19.345 17.4361 19.0685 17.4361L16.4943 17.4361C16.2178 17.4361 16.0514 17.5958 16.0514 17.8693L16.0514 18.0061C16.0514 18.2894 16.2178 18.449 16.4943 18.449ZM0.599611 20.41L20.5161 20.41C20.8459 20.41 21.1225 20.1334 21.1225 19.8006C21.1225 19.4708 20.8459 19.201 20.5161 19.201L0.599611 19.201C0.269825 19.201 0 19.4708 0 19.8006C0 20.1334 0.269825 20.41 0.599611 20.41Z" fill="black" fill-opacity="0.85"/>
 </g>
</svg>
