<?xml version="1.0" encoding="UTF-8"?>
<!--Generator: Apple Native CoreSVG 341-->
<!DOCTYPE svg
PUBLIC "-//W3C//DTD SVG 1.1//EN"
       "http://www.w3.org/Graphics/SVG/1.1/DTD/svg11.dtd">
<svg version="1.1" xmlns="http://www.w3.org/2000/svg" xmlns:xlink="http://www.w3.org/1999/xlink" viewBox="0 0 20.7335 20.3788">
 <g>
  <rect height="20.3788" opacity="0" width="20.7335" x="0" y="0"/>
  <path d="M5.62431 18.4397L10.494 15.6244C11.4915 15.042 12.4597 14.4463 13.3972 13.8106L13.3972 18.2937L15.0261 18.2937L15.0261 10.2591C15.0261 9.89189 14.9861 9.52782 14.9129 9.19395L18.8323 11.4513L19.6449 10.0159L14.6798 7.15134C13.764 6.62796 12.8446 6.12456 11.9088 5.65802L11.7259 5.57679L15.5738 3.36163L14.7479 1.92624L9.86484 4.74507C8.89665 5.30441 7.90583 5.91658 6.99092 6.54252L6.99092 2.06913L5.35226 2.06913L5.34605 10.1007C5.34605 10.4679 5.38601 10.8284 5.45927 11.1689L1.54346 8.90846L0.72413 10.3341L5.68572 13.1986C6.50432 13.6701 7.34289 14.1251 8.18147 14.5397L8.64621 14.7829L4.80497 17.0043ZM10.1845 13.3843C8.42259 13.3843 6.98471 11.9465 6.98471 10.1845C6.98471 8.41593 8.42259 6.98471 10.1845 6.98471C11.9465 6.98471 13.3843 8.41593 13.3843 10.1845C13.3843 11.9465 11.9465 13.3843 10.1845 13.3843ZM10.1845 20.3691C15.8099 20.3691 20.3722 15.8068 20.3722 10.1845C20.3722 4.56226 15.8099 0 10.1845 0C4.56226 0 0 4.56226 0 10.1845C0 15.8068 4.56226 20.3691 10.1845 20.3691ZM10.1845 18.1313C5.79032 18.1313 2.23776 14.5787 2.23776 10.1845C2.23776 5.79032 5.79032 2.23776 10.1845 2.23776C14.5787 2.23776 18.1344 5.79032 18.1344 10.1845C18.1344 14.5787 14.5787 18.1313 10.1845 18.1313Z" fill="black" fill-opacity="0.85"/>
 </g>
</svg>
