<?xml version="1.0" encoding="UTF-8"?>
<!--Generator: Apple Native CoreSVG 341-->
<!DOCTYPE svg
PUBLIC "-//W3C//DTD SVG 1.1//EN"
       "http://www.w3.org/Graphics/SVG/1.1/DTD/svg11.dtd">
<svg version="1.1" xmlns="http://www.w3.org/2000/svg" xmlns:xlink="http://www.w3.org/1999/xlink" viewBox="0 0 15.2539 18.4082">
 <g>
  <rect height="18.4082" opacity="0" width="15.2539" x="0" y="0"/>
  <path d="M7.44629 18.3984C8.44727 18.3984 9.13086 17.7148 9.13086 16.7139L9.13086 11.5332L14.5264 2.80762C14.751 2.44629 14.8926 2.03613 14.8926 1.61621C14.8926 0.668945 14.1406 0 13.1543 0C12.4268 0 11.9092 0.415039 11.5723 1.07422L7.52441 8.4375L7.43164 8.4375L3.37891 1.08398C3.02734 0.371094 2.55859 0 1.77246 0C0.756836 0 0 0.678711 0 1.63574C0 2.06055 0.126953 2.45117 0.356445 2.81738L5.75195 11.5332L5.75195 16.7139C5.75195 17.7148 6.44531 18.3984 7.44629 18.3984ZM1.29395 10.9033C1.29395 11.2256 1.55762 11.4844 1.875 11.4844L13.0566 11.4844C13.3691 11.4844 13.6328 11.2256 13.6328 10.9033C13.6328 10.5859 13.3691 10.3271 13.0566 10.3271L1.875 10.3271C1.55762 10.3271 1.29395 10.5859 1.29395 10.9033ZM1.29395 14.0918C1.29395 14.4092 1.55762 14.668 1.875 14.668L13.0566 14.668C13.3691 14.668 13.6328 14.4092 13.6328 14.0918C13.6328 13.7695 13.3691 13.5107 13.0566 13.5107L1.875 13.5107C1.55762 13.5107 1.29395 13.7695 1.29395 14.0918Z" fill="black" fill-opacity="0.85"/>
 </g>
</svg>
