<?xml version="1.0" encoding="UTF-8"?>
<!--Generator: Apple Native CoreSVG 341-->
<!DOCTYPE svg
PUBLIC "-//W3C//DTD SVG 1.1//EN"
       "http://www.w3.org/Graphics/SVG/1.1/DTD/svg11.dtd">
<svg version="1.1" xmlns="http://www.w3.org/2000/svg" xmlns:xlink="http://www.w3.org/1999/xlink" viewBox="0 0 20.9131 22.9517">
 <g>
  <rect height="22.9517" opacity="0" width="20.9131" x="0" y="0"/>
  <path d="M10.2588 10.6995L19.7852 5.21606C19.6191 5.04517 19.4287 4.88403 19.209 4.75708L11.626 0.377197C10.7715-0.125732 9.78027-0.125732 8.93066 0.377197L1.34277 4.75708C1.11816 4.88892 0.917969 5.05005 0.742188 5.23071ZM9.38477 12.2766L0.0195312 6.90552C0.00488281 7.00806 0 7.1106 0 7.21313L0 15.8508C0 16.8323 0.50293 17.7014 1.34277 18.1799L8.93066 22.5647C9.07715 22.6477 9.22363 22.7307 9.38477 22.7844ZM11.1914 12.2424L11.1914 22.7795C11.3477 22.7258 11.4941 22.6477 11.6504 22.5598L19.2285 18.175C20.0488 17.7063 20.5518 16.8225 20.5518 15.8459L20.5518 7.20337C20.5518 7.10083 20.5371 6.97876 20.5273 6.87622Z" fill="black" fill-opacity="0.85"/>
 </g>
</svg>
