<?xml version="1.0" encoding="UTF-8"?>
<!--Generator: Apple Native CoreSVG 341-->
<!DOCTYPE svg
PUBLIC "-//W3C//DTD SVG 1.1//EN"
       "http://www.w3.org/Graphics/SVG/1.1/DTD/svg11.dtd">
<svg version="1.1" xmlns="http://www.w3.org/2000/svg" xmlns:xlink="http://www.w3.org/1999/xlink" viewBox="0 0 26.6197 16.8374">
 <g>
  <rect height="16.8374" opacity="0" width="26.6197" x="0" y="0"/>
  <path d="M13.3098 16.8213C21.3019 16.8213 26.6195 10.3876 26.6195 8.40883C26.6195 6.42631 21.2948-1.77636e-15 13.3098-1.77636e-15C5.43223-1.77636e-15-2.22045e-16 6.42631-2.22045e-16 8.40883C-2.22045e-16 10.3876 5.42796 16.8213 13.3098 16.8213ZM13.3134 13.6957C10.392 13.6957 8.02277 11.3339 8.02277 8.41246C8.02277 5.49103 10.392 3.12919 13.3134 3.12919C16.2349 3.12919 18.5967 5.49103 18.5967 8.41246C18.5967 11.3339 16.2349 13.6957 13.3134 13.6957ZM13.3134 10.4357C14.4336 10.4357 15.3366 9.53408 15.3366 8.41246C15.3366 7.29084 14.4336 6.38926 13.3134 6.38926C12.1918 6.38926 11.2902 7.29084 11.2902 8.41246C11.2902 9.53408 12.1918 10.4357 13.3134 10.4357Z" fill="#8e8e93"/>
 </g>
</svg>
