<?xml version="1.0" encoding="UTF-8"?>
<!--Generator: Apple Native CoreSVG 341-->
<!DOCTYPE svg
PUBLIC "-//W3C//DTD SVG 1.1//EN"
       "http://www.w3.org/Graphics/SVG/1.1/DTD/svg11.dtd">
<svg version="1.1" xmlns="http://www.w3.org/2000/svg" xmlns:xlink="http://www.w3.org/1999/xlink" viewBox="0 0 26.9912 21.0923">
 <g>
  <rect height="21.0923" opacity="0" width="26.9912" x="0" y="0"/>
  <path d="M8.49127 8.38311C8.19258 9.04032 8.02853 9.77137 8.02853 10.5413C8.02853 13.4559 10.3954 15.8295 13.3167 15.8295C14.0874 15.8295 14.8201 15.6639 15.479 15.3626L18.2207 18.1012C16.7436 18.6313 15.095 18.9507 13.3136 18.9507C5.43373 18.9507 0 12.5139 0 10.5382C0 9.39596 1.80951 6.77052 4.8621 4.75818ZM26.6299 10.5382C26.6299 11.6476 24.9523 14.1638 22.0647 16.1567L18.2752 12.3693C18.4924 11.8013 18.608 11.1845 18.608 10.5413C18.608 7.61686 16.2345 5.25309 13.3167 5.25309C12.6722 5.25309 12.0548 5.36813 11.4865 5.5846L8.76719 2.8669C10.1549 2.40149 11.6818 2.1256 13.3136 2.1256C21.3031 2.1256 26.6299 8.55886 26.6299 10.5382ZM13.8547 13.7402C13.6806 13.7731 13.5004 13.7883 13.3167 13.7883C11.5238 13.7883 10.0697 12.3341 10.0697 10.5413C10.0697 10.3589 10.0847 10.18 10.1172 10.0071ZM16.5638 10.5413L16.5581 10.6533L13.2029 7.29997C13.24 7.2949 13.2783 7.29423 13.3167 7.29423C15.1127 7.29423 16.5638 8.7453 16.5638 10.5413Z" fill="#8e8e93"/>
  <path d="M21.1859 19.2938C21.4975 19.612 22.0004 19.6254 22.3125 19.2938C22.6409 18.9622 22.6241 18.4855 22.3125 18.1672L5.61478 1.47931C5.30629 1.16771 4.79006 1.16771 4.47846 1.47931C4.17973 1.78114 4.17973 2.30714 4.47846 2.60587Z" fill="#8e8e93"/>
 </g>
</svg>
