<?xml version="1.0" encoding="UTF-8"?>
<!--Generator: Apple Native CoreSVG 341-->
<!DOCTYPE svg
PUBLIC "-//W3C//DTD SVG 1.1//EN"
       "http://www.w3.org/Graphics/SVG/1.1/DTD/svg11.dtd">
<svg version="1.1" xmlns="http://www.w3.org/2000/svg" xmlns:xlink="http://www.w3.org/1999/xlink" viewBox="0 0 20.7335 20.3788">
 <g>
  <rect height="20.3788" opacity="0" width="20.7335" x="0" y="0"/>
  <path d="M20.3722 10.1845C20.3722 15.8001 15.8099 20.3691 10.1845 20.3691C4.56892 20.3691 0 15.8001 0 10.1845C0 4.56226 4.56892 0 10.1845 0C15.8099 0 20.3722 4.56226 20.3722 10.1845ZM8.55546 8.43689C8.06146 8.43689 7.68019 8.81505 7.68019 9.28331C7.68019 9.78708 8.06146 10.1395 8.55546 10.1395L9.54273 10.1395L9.54273 14.0834L8.37082 14.0834C7.87637 14.0834 7.49199 14.4616 7.49199 14.9267C7.49199 15.4336 7.87637 15.786 8.37082 15.786L12.4968 15.786C12.9943 15.786 13.3756 15.4336 13.3756 14.9267C13.3756 14.4616 12.9943 14.0834 12.4968 14.0834L11.4615 14.0834L11.4615 9.53497C11.4615 8.8732 11.1384 8.43689 10.509 8.43689ZM8.69443 5.48898C8.69443 6.29017 9.34558 6.94442 10.1432 6.94442C10.9409 6.94442 11.5853 6.29017 11.5853 5.48898C11.5853 4.66915 10.9409 4.02732 10.1432 4.02732C9.34558 4.02732 8.69443 4.66915 8.69443 5.48898Z" fill="black" fill-opacity="0.85"/>
 </g>
</svg>
