<?xml version="1.0" encoding="UTF-8"?>
<!--Generator: Apple Native CoreSVG 341-->
<!DOCTYPE svg
PUBLIC "-//W3C//DTD SVG 1.1//EN"
       "http://www.w3.org/Graphics/SVG/1.1/DTD/svg11.dtd">
<svg version="1.1" xmlns="http://www.w3.org/2000/svg" xmlns:xlink="http://www.w3.org/1999/xlink" viewBox="0 0 13.0694 12.7374">
 <g>
  <rect height="12.7374" opacity="0" width="13.0694" x="0" y="0"/>
  <path d="M1.13003 12.5449L12.5156 1.15561C12.7756 0.902293 12.7824 0.468405 12.5156 0.218112C12.2623-0.0419475 11.8381-0.0352092 11.5848 0.218112L0.192526 11.6074C-0.0607951 11.8607-0.0675334 12.2878 0.192526 12.5449C0.445847 12.8049 0.876707 12.7982 1.13003 12.5449ZM0.192526 1.15561L11.5848 12.5449C11.8381 12.7982 12.2623 12.8049 12.5156 12.5449C12.7824 12.2878 12.7756 11.8607 12.5156 11.6074L1.13003 0.218112C0.876707-0.0352092 0.445847-0.0419475 0.192526 0.218112C-0.0675334 0.468405-0.0607951 0.902293 0.192526 1.15561Z" fill="black" fill-opacity="0.85"/>
 </g>
</svg>
