<?xml version="1.0" encoding="UTF-8"?>
<!--Generator: Apple Native CoreSVG 341-->
<!DOCTYPE svg
PUBLIC "-//W3C//DTD SVG 1.1//EN"
       "http://www.w3.org/Graphics/SVG/1.1/DTD/svg11.dtd">
<svg version="1.1" xmlns="http://www.w3.org/2000/svg" xmlns:xlink="http://www.w3.org/1999/xlink" viewBox="0 0 23.5688 18.4257">
 <g>
  <rect height="18.4257" opacity="0" width="23.5688" x="0" y="0"/>
  <path d="M23.2075 3.2882L23.2075 15.1504C23.2075 17.2894 22.0645 18.4257 19.8988 18.4257L3.30863 18.4257C1.14961 18.4257 0 17.2894 0 15.1504L0 3.2882C0 1.14605 1.14961 0.0062108 3.30863 0.0062108L19.8988 0.0062108C22.0645 0.0062108 23.2075 1.14605 23.2075 3.2882ZM13.8845 9.31281L9.29724 13.3913L7.45685 11.7365C7.03027 11.3454 6.54464 11.1532 6.07545 11.1532C5.62091 11.1532 5.19564 11.3423 4.76906 11.717L2.17471 13.9863L2.17471 14.8864C2.17471 15.744 2.68833 16.2576 3.53933 16.2576L19.6748 16.2576C20.4845 16.2576 21.0327 15.744 21.0327 14.8966L21.0327 13.1132L16.9349 9.32258C16.4915 8.90531 15.9442 8.70644 15.4195 8.70644C14.8721 8.70644 14.3475 8.89555 13.8845 9.31281ZM5.37481 6.92244C5.37481 8.2723 6.47743 9.37492 7.82419 9.37492C9.16429 9.37492 10.2669 8.2723 10.2669 6.92244C10.2669 5.58545 9.16429 4.47307 7.82419 4.47307C6.47743 4.47307 5.37481 5.58545 5.37481 6.92244Z" fill="black" fill-opacity="0.85"/>
 </g>
</svg>
