<?xml version="1.0" encoding="UTF-8"?>
<!--Generator: Apple Native CoreSVG 341-->
<!DOCTYPE svg
PUBLIC "-//W3C//DTD SVG 1.1//EN"
       "http://www.w3.org/Graphics/SVG/1.1/DTD/svg11.dtd">
<svg version="1.1" xmlns="http://www.w3.org/2000/svg" xmlns:xlink="http://www.w3.org/1999/xlink" viewBox="0 0 23.1153 23.9343">
 <g>
  <rect height="23.9343" opacity="0" width="23.1153" x="0" y="0"/>
  <path d="M12.7374 16.5028L12.4133 16.5028L12.4133 21.1565C12.4133 22.4457 11.6677 23.9343 11.377 23.9343C11.0862 23.9343 10.3406 22.4457 10.3406 21.1565L10.3406 16.5028L5.1563 16.5028C4.19355 16.5028 3.56238 15.8876 3.56238 14.9612C3.56238 13.2366 4.67316 11.4921 6.57313 10.3452ZM17.9513 1.63131C17.9513 1.96154 17.8155 2.33394 17.5363 2.68461C17.0347 3.32338 15.8939 4.23203 14.4122 5.07363L14.7314 9.64921C17.4972 10.6795 19.1818 12.8355 19.1818 14.9612C19.1818 15.61 18.8737 16.1062 18.3575 16.3443L8.25492 6.24723L8.33507 5.07363C6.8534 4.23203 5.71257 3.32338 5.21763 2.68461C4.93843 2.33394 4.80261 1.96154 4.80261 1.63131C4.80261 0.948654 5.32326 0.450199 6.09115 0.450199L16.6628 0.450199C17.424 0.450199 17.9513 0.948654 17.9513 1.63131Z" fill="black" fill-opacity="0.85"/>
  <path d="M1.47515 3.49021L19.4854 21.4809C19.8068 21.7925 20.3164 21.7832 20.612 21.4809C20.9267 21.1662 20.9271 20.6691 20.612 20.3606L2.61458 2.37297C2.29988 2.05826 1.78365 2.0516 1.47515 2.36365C1.17642 2.66549 1.17953 3.18793 1.47515 3.49021Z" fill="black" fill-opacity="0.85"/>
 </g>
</svg>
