<?xml version="1.0" encoding="UTF-8"?>
<!--Generator: Apple Native CoreSVG 341-->
<!DOCTYPE svg
PUBLIC "-//W3C//DTD SVG 1.1//EN"
       "http://www.w3.org/Graphics/SVG/1.1/DTD/svg11.dtd">
<svg version="1.1" xmlns="http://www.w3.org/2000/svg" xmlns:xlink="http://www.w3.org/1999/xlink" viewBox="0 0 20.7335 20.3788">
 <g>
  <rect height="20.3788" opacity="0" width="20.7335" x="0" y="0"/>
  <path d="M10.1845 20.3691C15.8099 20.3691 20.3722 15.8001 20.3722 10.1845C20.3722 4.56226 15.8099 0 10.1845 0C4.56892 0 0 4.56226 0 10.1845C0 15.8001 4.56892 20.3691 10.1845 20.3691Z" fill="#34c759"/>
  <path d="M11.2267 13.8529L11.2267 6.5028C11.2267 5.90183 10.7882 5.45976 10.1779 5.45976C9.57734 5.45976 9.14238 5.90183 9.14238 6.5028L9.14238 13.8529C9.14238 14.4472 9.57734 14.8862 10.1779 14.8862C10.7882 14.8862 11.2267 14.4539 11.2267 13.8529ZM6.51257 11.2134L13.8662 11.2134C14.4637 11.2134 14.9026 10.7882 14.9026 10.1845C14.9026 9.57424 14.4637 9.13572 13.8662 9.13572L6.51257 9.13572C5.90849 9.13572 5.47619 9.57424 5.47619 10.1845C5.47619 10.7882 5.90849 11.2134 6.51257 11.2134Z" fill="white"/>
 </g>
</svg>
