<?xml version="1.0" standalone="no"?><!DOCTYPE svg PUBLIC "-//W3C//DTD SVG 1.1//EN" "http://www.w3.org/Graphics/SVG/1.1/DTD/svg11.dtd"><svg t="1773474893543" class="icon" viewBox="0 0 1086 1024" version="1.1" xmlns="http://www.w3.org/2000/svg" p-id="31090" xmlns:xlink="http://www.w3.org/1999/xlink" width="212.109375" height="200"><path d="M268.318092 282.524846a161.703821 161.703821 0 0 0-35.705264-117.452942 20.584721 20.584721 0 0 1 2.346909-28.825775A511.214108 511.214108 0 0 1 386.971361 48.371407a20.620552 20.620552 0 0 1 26.281798 12.701973 160.772224 160.772224 0 0 0 150.488821 103.908948 160.646816 160.646816 0 0 0 150.488821-104.034355 20.620552 20.620552 0 0 1 26.281798-12.684058 495.412782 495.412782 0 0 1 150.005107 85.993612c8.706853 7.166134-12.433243 22.501662-19.509801 31.208515-41.205272 50.377924-25.188962 122.164675 9.244313 181.786912s103.908948 71.930073 168.117512 61.413772c11.053762-1.791534 19.294817 22.143355 21.283419 33.37627a522.482854 522.482854 0 0 1 7.614017 88.089707 498.422558 498.422558 0 0 1-7.614017 87.785145c-1.988602 11.053762-17.915336 11.859952-29.004929 10.032588-64.172733-10.498387-130.781952 23.684074-165.268973 83.306312s-21.229673 133.594659 20.101007 183.972584a20.584721 20.584721 0 0 1-2.364825 28.825775 511.214108 511.214108 0 0 1-152.06537 87.910553c-10.749201 3.977205-26.96258 1.218243-30.939785-9.459298-23.021207-60.732988-76.910537-107.097878-145.777088-107.097877s-151.474164 37.389306-174.495371 98.104379a20.602636 20.602636 0 0 1-26.281797 12.684058c-56.00334-20.477229-83.23465-44.627102-128.184228-82.141815a20.566806 20.566806 0 0 1-2.472317-28.915352 160.879716 160.879716 0 0 0 14.869729-182.342288c-34.451191-59.622238-98.40894-102.493636-162.563757-91.977334-11.071678 1.791534-24.669417 8.241054-26.478867-2.812708a520.315099 520.315099 0 0 1-7.614017-88.089706 498.368812 498.368812 0 0 1 7.614017-87.785146 20.656382 20.656382 0 0 1 23.73782-16.500024 161.793398 161.793398 0 0 0 137.016489-42.226447" fill="#80C6FF" p-id="31091"></path><path d="M239.205672 311.153553a14.94139 14.94139 0 1 0-14.941391 14.923474 14.959305 14.959305 0 0 0 14.941391-14.923474z" fill="#46505D" p-id="31092"></path><path d="M1078.646647 418.645568a32.247604 32.247604 0 0 0-37.317644-25.887661 153.695666 153.695666 0 0 1-25.08147 2.060264A155.863422 155.863422 0 0 1 895.26527 140.097926c11.161254-13.812724 9.459297-34.039138-3.815967-45.218307a539.574085 539.574085 0 0 0-161.238022-92.962678C713.92624-4.102612 695.365952 4.657987 688.934347 21.498403c-23.289937 60.177613-82.070153 100.594611-146.207056 100.594611A156.902511 156.902511 0 0 1 396.860627 21.498403C390.554429 4.622157 371.940395-4.120527 355.547862 1.916941a540.93565 540.93565 0 0 0-161.005123 93.159746 32.247604 32.247604 0 0 0-3.833882 45.182477 158.479061 158.479061 0 0 1 34.737837 113.941536 11.089593 11.089593 0 0 0 9.889265 11.931614 10.641709 10.641709 0 0 0 7.882748-2.454401A10.982101 10.982101 0 0 0 247.231742 256.189302a179.637072 179.637072 0 0 0-39.592892-129.814523 11.089593 11.089593 0 0 1-2.508147-8.061901 9.638451 9.638451 0 0 1 3.439744-6.574928 517.986105 517.986105 0 0 1 154.537687-89.34378c5.571669-2.221502 11.17917 1.57655 13.311095 6.557013v0.214984A176.913941 176.913941 0 0 0 440.717369 111.720034a175.928598 175.928598 0 0 0 102.117414 32.247605 175.928598 175.928598 0 0 0 102.117414-32.408843 178.060523 178.060523 0 0 0 64.226479-82.69719 11.555392 11.555392 0 0 1 5.965807-6.521182 9.405551 9.405551 0 0 1 7.399034-0.197069 521.228781 521.228781 0 0 1 154.430195 89.128796 9.889265 9.889265 0 0 1 3.475575 6.969065 10.749201 10.749201 0 0 1-2.6873 7.811087 177.988861 177.988861 0 0 0-16.446279 201.529613 175.2299 175.2299 0 0 0 79.132039 72.28838 177.218502 177.218502 0 0 0 103.908947 14.081454 10.641709 10.641709 0 0 1 8.151478 1.791533 9.620535 9.620535 0 0 1 3.99512 6.413691 512.521927 512.521927 0 0 1 7.882748 89.684171 522.070801 522.070801 0 0 1-7.703594 89.182541 10.355064 10.355064 0 0 1-11.949529 8.22314h-0.197069a177.791793 177.791793 0 0 0-166.254317 288.168176 11.125424 11.125424 0 0 1 2.508147 8.079817 9.584705 9.584705 0 0 1-3.457659 6.574928 517.753206 517.753206 0 0 1-154.519772 89.325865c-5.553754 2.221502-11.17917-1.57655-13.311095-6.557013l-0.089576-0.214984a177.845539 177.845539 0 0 0-332.508633 0 11.48373 11.48373 0 0 1-5.965807 6.521182 9.405551 9.405551 0 0 1-7.399034 0.197069A517.753206 517.753206 0 0 1 209.036246 911.890594a9.817604 9.817604 0 0 1-3.475575-6.861574 10.605879 10.605879 0 0 1 2.669385-7.829002 176.609381 176.609381 0 0 0 39.413739-96.83239 177.666385 177.666385 0 0 0-23.057038-104.715138A175.964429 175.964429 0 0 0 145.365142 623.453687a178.275507 178.275507 0 0 0-103.676048-14.332269 10.749201 10.749201 0 0 1-8.097732-1.791533 9.656366 9.656366 0 0 1-4.048866-6.521183 522.178293 522.178293 0 0 1 0-178.418829 10.337149 10.337149 0 0 1 11.949529-8.223139h0.197069a178.257592 178.257592 0 0 0 151.295011-46.794857 10.587963 10.587963 0 0 0 3.368083-7.596103 10.982101 10.982101 0 0 0-3.009776-7.846917 10.749201 10.749201 0 0 0-7.578187-3.350168 10.856694 10.856694 0 0 0-7.846917 3.027692 156.723358 156.723358 0 0 1-132.698893 40.900712 32.408843 32.408843 0 0 0-37.138491 26.120559 538.929132 538.929132 0 0 0 0 185.943271A32.462589 32.462589 0 0 0 45.433399 630.619821a155.863422 155.863422 0 0 1 145.848749 252.606236 32.373012 32.373012 0 0 0 3.815967 45.218307 539.627831 539.627831 0 0 0 161.238022 92.962678l0.824106 0.394137a19.223155 19.223155 0 0 0 9.63845 2.185671 33.143371 33.143371 0 0 0 30.688971-21.372996 155.988829 155.988829 0 0 1 291.715413-0.179153 32.623827 32.623827 0 0 0 41.33068 19.527716 543.031744 543.031744 0 0 0 161.238022-93.159746 32.247604 32.247604 0 0 0 3.851797-45.182477 155.863422 155.863422 0 0 1 145.830834-252.606235 32.731319 32.731319 0 0 0 37.33556-26.102645 537.71089 537.71089 0 0 0 8.079816-92.747693 544.841193 544.841193 0 0 0-8.223139-93.518053z" fill="#46505D" p-id="31093"></path><path d="M542.834783 727.541788a215.575236 215.575236 0 1 0 0-431.132557c-118.868253 0-215.557321 96.617406-215.557321 215.396083S424.038191 727.541788 542.834783 727.541788z m0-409.437085a193.790188 193.790188 0 1 1-193.628949 193.879764c0-106.900809 86.907294-193.879764 193.628949-193.879764z" fill="#46505D" p-id="31094"></path></svg>