<?xml version="1.0" standalone="no"?><!DOCTYPE svg PUBLIC "-//W3C//DTD SVG 1.1//EN" "http://www.w3.org/Graphics/SVG/1.1/DTD/svg11.dtd"><svg t="1773474811346" class="icon" viewBox="0 0 1024 1024" version="1.1" xmlns="http://www.w3.org/2000/svg" p-id="25724" xmlns:xlink="http://www.w3.org/1999/xlink" width="200" height="200"><path d="M511.99984 1024c282.783912 0 511.99984-229.215928 511.99984-511.99984S794.783752 0.00032 511.99984 0.00032 0 229.216248 0 512.00016s229.215928 511.99984 511.99984 511.99984z" fill="#FFFFFF" p-id="25725"></path><path d="M500.575844 625.184125a113.215965 113.215965 0 0 1-63.263981-27.519992 611.231809 611.231809 0 0 0-92.927971 398.111876c53.919983 18.687994 110.559965 28.255991 167.615948 28.223991 72.159977 0 140.799956-15.007995 203.039937-41.919987a639.7118 639.7118 0 0 1-214.463933-356.895888" fill="#7ED321" p-id="25726"></path><path d="M401.855874 484.000169a113.407965 113.407965 0 0 1 29.439991-52.159984 610.399809 610.399809 0 0 0-394.975876-109.215966A510.175841 510.175841 0 0 0 0 512.00016c0 64.79998 12.159996 126.68796 34.111989 183.711943a639.0398 639.0398 0 0 1 367.743885-211.711934" fill="#4298FD" p-id="25727"></path><path d="M46.399986 724.992093a513.791839 513.791839 0 0 0 268.191916 259.519919c-12.479996-141.343956 21.823993-286.079911 103.039967-408.959872a113.247965 113.247965 0 0 1-19.327993-62.04798 611.295809 611.295809 0 0 0-351.871891 211.519933" fill="#4569FF" p-id="25728"></path><path d="M625.599805 515.968159a113.215965 113.215965 0 0 1-17.503995 56.799982c117.407963 77.439976 255.64792 110.047966 390.655878 98.047969 16.735995-51.295984 25.279992-104.895967 25.247992-158.81595 0-69.119978-13.759996-134.975958-38.559988-195.103939a638.9758 638.9758 0 0 1-359.871887 199.071938" fill="#FFD045" p-id="25729"></path><path d="M454.943858 413.664191a112.895965 112.895965 0 0 1 47.583985-14.943996A610.559809 610.559809 0 0 0 306.399904 43.104307a513.759839 513.759839 0 0 0-257.343919 250.111921 638.7838 638.7838 0 0 1 405.887873 120.447963" fill="#EF5350" p-id="25730"></path><path d="M972.607696 288.28823a513.887839 513.887839 0 0 0-252.863921-244.223924 638.5598 638.5598 0 0 1-120.351962 395.103877c11.647996 13.983996 19.775994 30.59199 23.679992 48.351985A610.559809 610.559809 0 0 0 972.607696 288.32023" fill="#FFAD45" p-id="25731"></path><path d="M988.159691 700.064101a638.9758 638.9758 0 0 1-398.239875-105.279967 113.279965 113.279965 0 0 1-60.383981 29.503991 611.199809 611.199809 0 0 0 213.983933 344.319892 513.53584 513.53584 0 0 0 244.671923-268.543916" fill="#40BA44" p-id="25732"></path><path d="M335.583895 31.23231a638.5918 638.5918 0 0 1 196.095939 368.799885 113.055965 113.055965 0 0 1 46.623985 19.647994 610.303809 610.303809 0 0 0 112.543965-387.519879A510.78384 510.78384 0 0 0 511.99984 0.00032c-62.015981 0-121.439962 11.039997-176.415945 31.23199" fill="#EF8283" p-id="25733"></path></svg>