<?xml version="1.0" encoding="UTF-8"?>
<!--Generator: Apple Native CoreSVG 341-->
<!DOCTYPE svg
PUBLIC "-//W3C//DTD SVG 1.1//EN"
       "http://www.w3.org/Graphics/SVG/1.1/DTD/svg11.dtd">
<svg version="1.1" xmlns="http://www.w3.org/2000/svg" xmlns:xlink="http://www.w3.org/1999/xlink" viewBox="0 0 24.2213 23.8364">
 <g>
  <rect height="23.8364" opacity="0" width="24.2213" x="0" y="0"/>
  <path d="M17.0972 3.41676L14.9485 5.5654L7.42176 5.5654C6.02826 5.5654 5.24117 6.3556 5.24117 7.7491L5.24117 16.7593C5.24117 18.1595 6.02826 18.943 7.42176 18.943L16.4382 18.943C17.8383 18.943 18.6157 18.1595 18.6157 16.7593L18.6157 9.30545L20.7732 7.14445C20.787 7.31256 20.7935 7.48655 20.7935 7.6657L20.7935 16.8494C20.7935 19.5912 19.267 21.1177 16.5251 21.1177L7.33481 21.1177C4.59962 21.1177 3.06645 19.5912 3.06645 16.8494L3.06645 7.6657C3.06645 4.92385 4.59962 3.39069 7.33481 3.39069L16.5251 3.39069C16.7228 3.39069 16.9141 3.39865 17.0972 3.41676Z" fill="black"/>
  <path d="M10.1689 14.448L12.2191 13.5993L20.98 4.84507L19.3719 3.25344L10.6208 12.0045L9.73883 14.0082C9.62965 14.2705 9.91502 14.5479 10.1689 14.448ZM21.743 4.08871L22.4089 3.40642C22.8186 2.98343 22.8341 2.39668 22.4306 2.00609L22.1501 1.72203C21.7946 1.37272 21.1919 1.43352 20.7951 1.82365L20.135 2.4802Z" fill="black"/>
 </g>
</svg>
