<?xml version="1.0" encoding="UTF-8"?>
<!--Generator: Apple Native CoreSVG 341-->
<!DOCTYPE svg
PUBLIC "-//W3C//DTD SVG 1.1//EN"
       "http://www.w3.org/Graphics/SVG/1.1/DTD/svg11.dtd">
<svg version="1.1" xmlns="http://www.w3.org/2000/svg" xmlns:xlink="http://www.w3.org/1999/xlink" viewBox="0 0 25.0262 24.5841">
 <g>
  <rect height="24.5841" opacity="0" width="25.0262" x="0" y="0"/>
  <path d="M17.1068 3.49972L14.0923 6.51418L7.91133 6.51418C6.80963 6.51418 6.1924 7.13888 6.1924 8.24057L6.1924 17.0678C6.1924 18.1718 6.80963 18.7942 7.91133 18.7942L16.7535 18.7942C17.8575 18.7942 18.465 18.1718 18.465 17.0678L18.465 10.9546L21.4885 7.92741C21.4919 7.95874 21.4921 7.99254 21.4921 8.02652L21.4921 17.2842C21.4921 20.1872 19.8654 21.8139 16.9624 21.8139L7.70243 21.8139C4.80173 21.8139 3.17275 20.1872 3.17275 17.2842L3.17275 8.02652C3.17275 5.12352 4.80173 3.49454 7.70243 3.49454L16.9624 3.49454C17.0119 3.49454 17.061 3.49501 17.1068 3.49972Z" fill="black"/>
  <path d="M10.9503 14.6651L13.2052 13.7902L21.4609 5.53689L19.4739 3.56199L11.228 11.8079L10.3416 14.0467C10.1889 14.444 10.6006 14.7954 10.9503 14.6651ZM22.2805 4.71955L22.8941 4.09388C23.4127 3.57072 23.45 2.81847 22.9463 2.33207L22.5874 1.97832C22.1579 1.56367 21.3809 1.65496 20.8796 2.15398L20.2935 2.74519Z" fill="black"/>
 </g>
</svg>
