<?xml version="1.0" encoding="UTF-8"?>
<!--Generator: Apple Native CoreSVG 341-->
<!DOCTYPE svg
PUBLIC "-//W3C//DTD SVG 1.1//EN"
       "http://www.w3.org/Graphics/SVG/1.1/DTD/svg11.dtd">
<svg version="1.1" xmlns="http://www.w3.org/2000/svg" xmlns:xlink="http://www.w3.org/1999/xlink" viewBox="0 0 23.5688 18.439">
 <g>
  <rect height="18.439" opacity="0" width="23.5688" x="0" y="0"/>
  <path d="M0 13.6586L0 11.6268L10.5554 11.6268L10.5554 6.82867L0 6.82867L0 4.79991L10.5554 4.79991L10.5554 0.0195312L12.6587 0.0195312L12.6587 4.79991L23.2075 4.79991L23.2075 6.82867L12.6587 6.82867L12.6587 11.6268L23.2075 11.6268L23.2075 13.6586L12.6587 13.6586L12.6587 18.439L10.5554 18.439L10.5554 13.6586ZM3.30863 18.439L19.8988 18.439C22.0645 18.439 23.2075 17.2961 23.2075 15.157L23.2075 3.29486C23.2075 1.15271 22.0645 0.0195312 19.8988 0.0195312L3.30863 0.0195312C1.14961 0.0195312 0 1.15271 0 3.29486L0 15.157C0 17.2961 1.14961 18.439 3.30863 18.439Z" fill="black" fill-opacity="0.85"/>
 </g>
</svg>
