<?xml version="1.0" encoding="UTF-8"?>
<!--Generator: Apple Native CoreSVG 341-->
<!DOCTYPE svg
PUBLIC "-//W3C//DTD SVG 1.1//EN"
       "http://www.w3.org/Graphics/SVG/1.1/DTD/svg11.dtd">
<svg version="1.1" xmlns="http://www.w3.org/2000/svg" xmlns:xlink="http://www.w3.org/1999/xlink" viewBox="0 0 21.365 21.006">
 <g>
  <rect height="21.006" opacity="0" width="21.365" x="0" y="0"/>
  <path d="M21.0037 10.4981C21.0037 16.2923 16.302 20.9962 10.4981 20.9962C4.70394 20.9962 0 16.2923 0 10.4981C0 4.70163 4.70394 0 10.4981 0C16.302 0 21.0037 4.70163 21.0037 10.4981ZM12.5755 6.63311L10.5082 8.69899L8.44254 6.63311C8.1893 6.37987 7.88208 6.25698 7.49564 6.25698C6.77037 6.25698 6.21506 6.80998 6.21506 7.5404C6.21506 7.862 6.35518 8.1916 6.59865 8.42992L8.68605 10.5199L6.59865 12.6059C6.35518 12.8465 6.21506 13.1664 6.21506 13.488C6.21506 14.2207 6.77037 14.7858 7.49564 14.7858C7.88669 14.7858 8.19391 14.6583 8.45461 14.3999L10.5075 12.3436L12.5611 14.3999C12.8218 14.6583 13.1291 14.7858 13.5201 14.7858C14.2431 14.7858 14.7984 14.2207 14.7984 13.488C14.7984 13.1664 14.6606 12.8465 14.4148 12.6059L12.3286 10.5195L14.4148 8.42992C14.6606 8.1916 14.7984 7.862 14.7984 7.5404C14.7984 6.80998 14.2431 6.25698 13.5201 6.25698C13.1314 6.25698 12.8265 6.37987 12.5755 6.63311Z" fill="black" fill-opacity="0.85"/>
 </g>
</svg>
