<?xml version="1.0" encoding="UTF-8"?>
<!--Generator: Apple Native CoreSVG 341-->
<!DOCTYPE svg
PUBLIC "-//W3C//DTD SVG 1.1//EN"
       "http://www.w3.org/Graphics/SVG/1.1/DTD/svg11.dtd">
<svg version="1.1" xmlns="http://www.w3.org/2000/svg" xmlns:xlink="http://www.w3.org/1999/xlink" viewBox="0 0 17.3523 24.081">
 <g>
  <rect height="24.081" opacity="0" width="17.3523" x="0" y="0"/>
  <path d="M0 19.3794C0 21.5415 1.13629 22.6845 3.28199 22.6845L13.709 22.6845C15.8578 22.6845 16.991 21.5415 16.991 19.3794L16.991 4.7047C16.991 2.54924 15.8578 1.39297 13.709 1.39297L3.28199 1.39297C1.13629 1.39297 0 2.54924 0 4.7047ZM2.17471 19.1917L2.17471 4.89238C2.17471 4.03382 2.60534 3.56768 3.50607 3.56768L13.488 3.56768C14.3856 3.56768 14.8163 4.03382 14.8163 4.89238L14.8163 19.1917C14.8163 20.0503 14.3856 20.5098 13.488 20.5098L3.50607 20.5098C2.60534 20.5098 2.17471 20.0503 2.17471 19.1917ZM8.49548 7.36614C9.67528 7.36614 10.5244 6.47175 10.437 5.30792L10.1746 1.59883C10.0939 0.532656 9.30599 0 8.49548 0C7.69119 0 6.90377 0.532656 6.82299 1.59883L6.554 5.30792C6.46656 6.47175 7.32234 7.36614 8.49548 7.36614ZM8.49548 6.35947C7.97615 6.35947 7.55091 5.92447 7.55091 5.40513C7.55091 4.8858 7.97615 4.46722 8.49548 4.46722C9.01482 4.46722 9.44316 4.8858 9.44316 5.40513C9.44316 5.92447 9.01482 6.35947 8.49548 6.35947ZM8.49548 9.68905L10.6533 9.68905C11.0532 9.68905 11.3524 9.3739 11.3524 8.97706C11.3524 8.58689 11.0532 8.29081 10.6533 8.29081L8.49548 8.29081ZM8.49548 11.0877L8.49548 9.68905L6.33769 9.68905C5.93775 9.68905 5.63857 9.98513 5.63857 10.3753C5.63857 10.7721 5.93775 11.0877 6.33769 11.0877ZM8.49548 12.486L10.6533 12.486C11.0532 12.486 11.3524 12.1739 11.3524 11.7704C11.3524 11.3869 11.0532 11.0877 10.6533 11.0877L8.49548 11.0877ZM8.49548 13.8909L8.49548 12.486L6.33769 12.486C5.93775 12.486 5.63857 12.7852 5.63857 13.1753C5.63857 13.5722 5.93775 13.8909 6.33769 13.8909ZM8.49548 15.286L10.6533 15.286C11.0532 15.286 11.3524 14.974 11.3524 14.5705C11.3524 14.187 11.0532 13.8909 10.6533 13.8909L8.49548 13.8909ZM8.49548 16.6843L8.49548 15.286L6.33769 15.286C5.93775 15.286 5.63857 15.5852 5.63857 15.9754C5.63857 16.3722 5.93775 16.6843 6.33769 16.6843Z" fill="black" fill-opacity="0.85"/>
 </g>
</svg>
