<svg xmlns="http://www.w3.org/2000/svg" width="28" height="28" viewBox="0 0 28 28"><rect x="0" y="0" width="28" height="28" rx="8" fill="rgb(0, 136, 255)"/><svg x="5" y="5" width="18" height="18" version="1.1" xmlns="http://www.w3.org/2000/svg" xmlns:xlink="http://www.w3.org/1999/xlink" viewBox="0 0 15.3955 23.2139"><g><rect height="23.2139" opacity="0" width="15.3955" x="0" y="0"/><path d="M0 12.8032C0 13.2573 0.351562 13.5845 0.825195 13.5845L6.7334 13.5845L3.64746 21.7485C3.20312 22.9155 4.41406 23.5356 5.19043 22.5933L14.7461 10.9624C14.9414 10.728 15.0342 10.5034 15.0342 10.2495C15.0342 9.79541 14.6826 9.46337 14.209 9.46337L8.30078 9.46337L11.3867 1.29931C11.8359 0.137203 10.6201-0.482914 9.84375 0.459468L0.288086 12.0903C0.0927734 12.3247 0 12.5542 0 12.8032Z" fill="#ffffff" /></g></svg></svg>