<svg xmlns="http://www.w3.org/2000/svg" width="28" height="28" viewBox="0 0 28 28"><rect x="0" y="0" width="28" height="28" rx="8" fill="rgb(48, 176, 199)"/><svg x="5" y="5" width="18" height="18" version="1.1" xmlns="http://www.w3.org/2000/svg" xmlns:xlink="http://www.w3.org/1999/xlink" viewBox="0 0 21.2089 23.5439"><g><rect height="23.5439" opacity="0" width="21.2089" x="0" y="0"/><path d="M2.93375 12.8584C1.56384 14.4709 1.07461 15.9399 1.65351 16.9421C2.23923 17.9502 3.75742 18.2635 5.83716 17.8882C5.96325 18.3882 6.11003 18.8536 6.27474 19.284C3.46097 19.7705 1.31399 19.2269 0.416356 17.6653C-0.489248 16.107 0.11154 13.9746 1.94239 11.7807C2.23317 12.1388 2.56338 12.499 2.93375 12.8584ZM10.609 17.9265C9.59555 18.3707 8.61883 18.7181 7.6989 18.963C7.53923 18.5363 7.39779 18.0615 7.27588 17.545C7.75312 17.4087 8.25363 17.2392 8.77149 17.0401C9.39683 17.3766 10.0111 17.6731 10.609 17.9265ZM14.2395 16.0098C13.9609 16.1857 13.6722 16.359 13.3761 16.53C13.0621 16.7111 12.75 16.8837 12.4416 17.0428C11.8499 16.8159 11.2353 16.55 10.6028 16.2453C11.2491 15.9351 11.9145 15.5834 12.5929 15.1915C13.2599 14.8056 13.8869 14.4114 14.4683 14.0129C14.4165 14.7157 14.3394 15.3829 14.2395 16.0098ZM18.2843 12.862C17.609 13.5387 16.8198 14.2133 15.9227 14.8701C16.0025 14.2213 16.0528 13.5362 16.074 12.8214C16.5086 12.4727 16.9044 12.1244 17.2636 11.7792C17.6519 12.1455 17.9937 12.5079 18.2843 12.862ZM20.7933 5.90799C21.6915 7.46466 21.0965 9.59183 19.2776 11.7802C18.9863 11.4205 18.6553 11.0589 18.2841 10.6981C19.6466 9.09152 20.1326 7.62793 19.5541 6.62089C18.9676 5.61048 17.4517 5.29654 15.375 5.67202C15.2491 5.17242 15.1026 4.70709 14.938 4.27685C17.7488 3.79125 19.8928 4.34111 20.7933 5.90799ZM5.13298 10.7464C4.70232 11.0919 4.30993 11.4372 3.95344 11.7795C3.56673 11.4148 3.22608 11.0543 2.93621 10.7021C3.6079 10.0308 4.39162 9.36164 5.28112 8.70975C5.20228 9.35493 5.15289 10.0359 5.13298 10.7464ZM10.6107 7.31871C9.97238 7.62634 9.31569 7.97398 8.6461 8.36088C7.9664 8.7519 7.32806 9.15204 6.73647 9.55679C6.7879 8.85914 6.86391 8.19592 6.96203 7.57144C7.25535 7.38556 7.56017 7.20266 7.87321 7.02233C8.17845 6.84587 8.48186 6.67744 8.78155 6.52272C9.37014 6.74926 9.98147 7.01452 10.6107 7.31871ZM13.9336 6.01687C13.4593 6.1528 12.9619 6.32169 12.4474 6.51986C11.8242 6.18394 11.2117 5.88748 10.6155 5.63423C11.6235 5.19078 12.5949 4.8441 13.5099 4.59948C13.67 5.02589 13.8116 5.50041 13.9336 6.01687Z" fill="#ffffff" /><path d="M20.7933 17.6653C19.8939 19.224 17.7493 19.7675 14.9364 19.281C15.1008 18.8508 15.2472 18.3856 15.3729 17.8859C17.453 18.2637 18.9688 17.9502 19.5541 16.9421C20.3836 15.5071 19.0307 13.1211 16.0743 10.7319C16.054 10.0223 16.0045 9.342 15.9256 8.69755C20.2028 11.8341 22.1172 15.3617 20.7933 17.6653ZM8.6461 15.2103C10.5536 16.3088 12.3567 17.0897 13.9318 17.5445C13.81 18.0609 13.6686 18.5355 13.509 18.9621C11.7843 18.5014 9.86769 17.695 7.87321 16.5489C7.56084 16.3684 7.25665 16.1854 6.96611 15.9987C6.86714 15.3742 6.7906 14.71 6.73903 14.0106C7.33076 14.4161 7.96783 14.8175 8.6461 15.2103ZM6.27293 4.27459C6.10793 4.70509 5.961 5.17066 5.83475 5.67057C3.75507 5.29045 2.23969 5.60125 1.65562 6.60842C0.827741 8.04826 2.17722 10.4251 5.13362 12.8191C5.15458 13.5288 5.20442 14.2092 5.28356 14.8537C1.00517 11.7089-0.911565 8.18178 0.416356 5.89553C1.31485 4.33925 3.46036 3.79141 6.27293 4.27459ZM13.3761 7.03078L14.2428 7.55632C14.3418 8.18116 14.4183 8.84544 14.47 9.54465C13.8863 9.14697 13.2596 8.7537 12.5929 8.36932C10.6736 7.26069 8.85903 6.47227 7.27482 6.01307C7.39723 5.49553 7.53941 5.02008 7.69996 4.59287C9.43659 5.05517 11.3678 5.86933 13.3761 7.03078Z" fill="#ffffff" /><path d="M10.6038 23.5439C13.7417 23.5439 16.0964 18.7479 16.0964 11.7657C16.0964 4.80871 13.7417 0.0168764 10.6038 0.0168764C7.47407 0.0168764 5.11121 4.80871 5.11121 11.7657C5.11121 18.7479 7.47407 23.5439 10.6038 23.5439ZM10.6038 22.1182C8.38171 22.1182 6.65698 17.9002 6.65698 11.7657C6.65698 5.65426 8.38171 1.45301 10.6038 1.45301C12.8259 1.45301 14.5506 5.65426 14.5506 11.7657C14.5506 17.9002 12.8259 22.1182 10.6038 22.1182Z" fill="#ffffff" /><path d="M10.6038 13.8511C11.7441 13.8511 12.6704 12.9248 12.6704 11.7742C12.6704 10.6339 11.7441 9.70759 10.6038 9.70759C9.45316 9.70759 8.52683 10.6339 8.52683 11.7742C8.52683 12.9248 9.45316 13.8511 10.6038 13.8511Z" fill="#ffffff" /></g></svg></svg>