<svg xmlns="http://www.w3.org/2000/svg" width="28" height="28" viewBox="0 0 28 28"><rect x="0" y="0" width="28" height="28" rx="8" fill="rgb(175, 82, 222)"/><svg x="5" y="5" width="18" height="18" version="1.1" xmlns="http://www.w3.org/2000/svg" xmlns:xlink="http://www.w3.org/1999/xlink" viewBox="0 0 24.4727 24.1211"><g><rect height="24.1211" opacity="0" width="24.4727" x="0" y="0"/><path d="M11.1328 19.2209L11.1328 21.6327C6.57261 21.1966 2.93865 17.5612 2.49855 12.998L4.90649 12.998C5.32028 16.2417 7.88849 18.8106 11.1328 19.2209ZM12.9932 21.6325L12.9932 19.2203C16.2398 18.8086 18.81 16.2404 19.2243 12.998L21.6323 12.998C21.1918 17.5599 17.5557 21.1945 12.9932 21.6325ZM21.633 11.1377L19.2265 11.1377C18.8178 7.88909 16.2447 5.31733 12.9932 4.90558L12.9932 2.4983C17.5603 2.93624 21.199 6.57357 21.633 11.1377ZM11.1328 4.90501C7.8836 5.31535 5.31254 7.88784 4.90427 11.1377L2.49785 11.1377C2.93142 6.57225 6.56808 2.93413 11.1328 2.4981Z" fill="#ffffff" /><path d="M12.0605 8.36426C12.5879 8.36426 12.9932 7.94922 12.9932 7.42676L12.9932 0.952148C12.9932 0.429688 12.5879 0.00976562 12.0605 0.00976562C11.5381 0.00976562 11.1328 0.429688 11.1328 0.952148L11.1328 7.42676C11.1328 7.94922 11.5381 8.36426 12.0605 8.36426ZM0.9375 12.998L7.41699 12.998C7.93945 12.998 8.35449 12.5879 8.35449 12.0654C8.35449 11.543 7.93945 11.1377 7.41699 11.1377L0.9375 11.1377C0.415039 11.1377 0 11.543 0 12.0654C0 12.5879 0.415039 12.998 0.9375 12.998ZM12.0605 24.1211C12.5879 24.1211 12.9932 23.7061 12.9932 23.1836L12.9932 16.709C12.9932 16.1816 12.5879 15.7715 12.0605 15.7715C11.5381 15.7715 11.1328 16.1816 11.1328 16.709L11.1328 23.1836C11.1328 23.7061 11.5381 24.1211 12.0605 24.1211ZM16.6943 12.998L23.1689 12.998C23.6963 12.998 24.1113 12.5879 24.1113 12.0654C24.1113 11.543 23.6963 11.1377 23.1689 11.1377L16.6943 11.1377C16.1719 11.1377 15.7568 11.543 15.7568 12.0654C15.7568 12.5879 16.1719 12.998 16.6943 12.998Z" fill="#ffffff" /><path d="M12.0557 13.8281C13.0273 13.8281 13.8184 13.0371 13.8184 12.0654C13.8184 11.0938 13.0273 10.3027 12.0557 10.3027C11.084 10.3027 10.293 11.0938 10.293 12.0654C10.293 13.0371 11.084 13.8281 12.0557 13.8281Z" fill="#ffffff" /></g></svg></svg>